<mxfile host="app.diagrams.net" modified="2021-03-09T15:06:32.262Z" agent="5.0 (Windows NT 10.0; WOW64) AppleWebKit/537.36 (KHTML, like Gecko) Chrome/87.0.4280.66 Safari/537.36" etag="HAcLqhJPF5WI5LQNwncs" version="14.4.5" type="github">
  <diagram id="C5RBs43oDa-KdzZeNtuy" name="Page-1">
    <mxGraphModel dx="1422" dy="914" grid="1" gridSize="10" guides="1" tooltips="1" connect="1" arrows="1" fold="1" page="1" pageScale="1" pageWidth="827" pageHeight="1169" math="0" shadow="0">
      <root>
        <mxCell id="WIyWlLk6GJQsqaUBKTNV-0" />
        <mxCell id="WIyWlLk6GJQsqaUBKTNV-1" parent="WIyWlLk6GJQsqaUBKTNV-0" />
        <mxCell id="NGM2FFOQqWBgE3LcFrRt-1" style="edgeStyle=orthogonalEdgeStyle;rounded=0;orthogonalLoop=1;jettySize=auto;html=1;entryX=0.5;entryY=0;entryDx=0;entryDy=0;" edge="1" parent="WIyWlLk6GJQsqaUBKTNV-1" source="WIyWlLk6GJQsqaUBKTNV-7" target="NGM2FFOQqWBgE3LcFrRt-0">
          <mxGeometry relative="1" as="geometry" />
        </mxCell>
        <mxCell id="WIyWlLk6GJQsqaUBKTNV-7" value="DashboardCode" style="rounded=1;whiteSpace=wrap;html=1;fontSize=12;glass=0;strokeWidth=1;shadow=0;" parent="WIyWlLk6GJQsqaUBKTNV-1" vertex="1">
          <mxGeometry x="354" y="110" width="120" height="40" as="geometry" />
        </mxCell>
        <mxCell id="WIyWlLk6GJQsqaUBKTNV-11" value="Binaries" style="rounded=1;whiteSpace=wrap;html=1;fontSize=12;glass=0;strokeWidth=1;shadow=0;" parent="WIyWlLk6GJQsqaUBKTNV-1" vertex="1">
          <mxGeometry x="354" y="350" width="120" height="40" as="geometry" />
        </mxCell>
        <mxCell id="NGM2FFOQqWBgE3LcFrRt-2" style="edgeStyle=orthogonalEdgeStyle;rounded=0;orthogonalLoop=1;jettySize=auto;html=1;entryX=0.5;entryY=0;entryDx=0;entryDy=0;" edge="1" parent="WIyWlLk6GJQsqaUBKTNV-1" source="NGM2FFOQqWBgE3LcFrRt-0" target="WIyWlLk6GJQsqaUBKTNV-11">
          <mxGeometry relative="1" as="geometry" />
        </mxCell>
        <mxCell id="NGM2FFOQqWBgE3LcFrRt-0" value="Compiler" style="rounded=1;whiteSpace=wrap;html=1;fontSize=12;glass=0;strokeWidth=1;shadow=0;" vertex="1" parent="WIyWlLk6GJQsqaUBKTNV-1">
          <mxGeometry x="354" y="230" width="120" height="40" as="geometry" />
        </mxCell>
        <mxCell id="NGM2FFOQqWBgE3LcFrRt-3" value="Jsonnet&lt;br&gt;Python&lt;br&gt;JavaScript&lt;br&gt;" style="text;html=1;strokeColor=none;fillColor=none;align=center;verticalAlign=middle;whiteSpace=wrap;rounded=0;" vertex="1" parent="WIyWlLk6GJQsqaUBKTNV-1">
          <mxGeometry x="600" y="120" width="40" height="20" as="geometry" />
        </mxCell>
        <mxCell id="NGM2FFOQqWBgE3LcFrRt-5" value="Grafonnet&lt;br&gt;Node&lt;br&gt;GrafanaLib&lt;br&gt;" style="text;html=1;strokeColor=none;fillColor=none;align=center;verticalAlign=middle;whiteSpace=wrap;rounded=0;" vertex="1" parent="WIyWlLk6GJQsqaUBKTNV-1">
          <mxGeometry x="605" y="240" width="40" height="20" as="geometry" />
        </mxCell>
        <mxCell id="NGM2FFOQqWBgE3LcFrRt-7" value="JSON" style="text;html=1;align=center;verticalAlign=middle;resizable=0;points=[];autosize=1;" vertex="1" parent="WIyWlLk6GJQsqaUBKTNV-1">
          <mxGeometry x="600" y="360" width="50" height="20" as="geometry" />
        </mxCell>
        <mxCell id="NGM2FFOQqWBgE3LcFrRt-10" value="Abstract Entity" style="text;html=1;strokeColor=none;fillColor=none;align=center;verticalAlign=middle;whiteSpace=wrap;rounded=0;" vertex="1" parent="WIyWlLk6GJQsqaUBKTNV-1">
          <mxGeometry x="369" y="60" width="90" height="20" as="geometry" />
        </mxCell>
        <mxCell id="NGM2FFOQqWBgE3LcFrRt-11" value="Concrete Entity" style="text;html=1;strokeColor=none;fillColor=none;align=center;verticalAlign=middle;whiteSpace=wrap;rounded=0;" vertex="1" parent="WIyWlLk6GJQsqaUBKTNV-1">
          <mxGeometry x="575" y="60" width="90" height="20" as="geometry" />
        </mxCell>
        <mxCell id="NGM2FFOQqWBgE3LcFrRt-13" value="" style="endArrow=none;dashed=1;html=1;dashPattern=1 3;strokeWidth=2;entryX=1;entryY=0.5;entryDx=0;entryDy=0;" edge="1" parent="WIyWlLk6GJQsqaUBKTNV-1" source="NGM2FFOQqWBgE3LcFrRt-3" target="WIyWlLk6GJQsqaUBKTNV-7">
          <mxGeometry width="50" height="50" relative="1" as="geometry">
            <mxPoint x="540" y="450" as="sourcePoint" />
            <mxPoint x="590" y="400" as="targetPoint" />
          </mxGeometry>
        </mxCell>
        <mxCell id="NGM2FFOQqWBgE3LcFrRt-14" value="" style="endArrow=none;dashed=1;html=1;dashPattern=1 3;strokeWidth=2;entryX=1;entryY=0.5;entryDx=0;entryDy=0;" edge="1" parent="WIyWlLk6GJQsqaUBKTNV-1">
          <mxGeometry width="50" height="50" relative="1" as="geometry">
            <mxPoint x="600" y="249.5" as="sourcePoint" />
            <mxPoint x="474" y="249.5" as="targetPoint" />
          </mxGeometry>
        </mxCell>
        <mxCell id="NGM2FFOQqWBgE3LcFrRt-15" value="" style="endArrow=none;dashed=1;html=1;dashPattern=1 3;strokeWidth=2;entryX=1;entryY=0.5;entryDx=0;entryDy=0;" edge="1" parent="WIyWlLk6GJQsqaUBKTNV-1">
          <mxGeometry width="50" height="50" relative="1" as="geometry">
            <mxPoint x="605" y="369.5" as="sourcePoint" />
            <mxPoint x="479" y="369.5" as="targetPoint" />
          </mxGeometry>
        </mxCell>
        <mxCell id="NGM2FFOQqWBgE3LcFrRt-17" style="edgeStyle=orthogonalEdgeStyle;rounded=0;orthogonalLoop=1;jettySize=auto;html=1;exitX=0.5;exitY=0.5;exitDx=0;exitDy=0;exitPerimeter=0;entryX=0;entryY=0.5;entryDx=0;entryDy=0;" edge="1" parent="WIyWlLk6GJQsqaUBKTNV-1" source="NGM2FFOQqWBgE3LcFrRt-16" target="WIyWlLk6GJQsqaUBKTNV-7">
          <mxGeometry relative="1" as="geometry">
            <Array as="points">
              <mxPoint x="200" y="250" />
              <mxPoint x="200" y="130" />
            </Array>
          </mxGeometry>
        </mxCell>
        <mxCell id="NGM2FFOQqWBgE3LcFrRt-18" value="schreibt" style="edgeLabel;html=1;align=center;verticalAlign=middle;resizable=0;points=[];" vertex="1" connectable="0" parent="NGM2FFOQqWBgE3LcFrRt-17">
          <mxGeometry x="0.3769" y="-1" relative="1" as="geometry">
            <mxPoint x="40" y="-1" as="offset" />
          </mxGeometry>
        </mxCell>
        <mxCell id="NGM2FFOQqWBgE3LcFrRt-28" style="edgeStyle=orthogonalEdgeStyle;rounded=0;orthogonalLoop=1;jettySize=auto;html=1;entryX=0;entryY=0.5;entryDx=0;entryDy=0;" edge="1" parent="WIyWlLk6GJQsqaUBKTNV-1" source="NGM2FFOQqWBgE3LcFrRt-16" target="NGM2FFOQqWBgE3LcFrRt-0">
          <mxGeometry relative="1" as="geometry" />
        </mxCell>
        <mxCell id="NGM2FFOQqWBgE3LcFrRt-29" value="gibt Code an" style="edgeLabel;html=1;align=center;verticalAlign=middle;resizable=0;points=[];" vertex="1" connectable="0" parent="NGM2FFOQqWBgE3LcFrRt-28">
          <mxGeometry x="0.2727" y="3" relative="1" as="geometry">
            <mxPoint as="offset" />
          </mxGeometry>
        </mxCell>
        <mxCell id="NGM2FFOQqWBgE3LcFrRt-30" style="edgeStyle=orthogonalEdgeStyle;rounded=0;orthogonalLoop=1;jettySize=auto;html=1;entryX=0;entryY=0.5;entryDx=0;entryDy=0;" edge="1" parent="WIyWlLk6GJQsqaUBKTNV-1" source="NGM2FFOQqWBgE3LcFrRt-16" target="WIyWlLk6GJQsqaUBKTNV-11">
          <mxGeometry relative="1" as="geometry">
            <Array as="points">
              <mxPoint x="200" y="250" />
              <mxPoint x="200" y="370" />
            </Array>
          </mxGeometry>
        </mxCell>
        <mxCell id="NGM2FFOQqWBgE3LcFrRt-31" value="Deployt" style="edgeLabel;html=1;align=center;verticalAlign=middle;resizable=0;points=[];" vertex="1" connectable="0" parent="NGM2FFOQqWBgE3LcFrRt-30">
          <mxGeometry x="0.6667" y="-3" relative="1" as="geometry">
            <mxPoint x="-20" y="-3" as="offset" />
          </mxGeometry>
        </mxCell>
        <mxCell id="NGM2FFOQqWBgE3LcFrRt-16" value="Entwickler" style="shape=umlActor;verticalLabelPosition=bottom;verticalAlign=top;html=1;outlineConnect=0;" vertex="1" parent="WIyWlLk6GJQsqaUBKTNV-1">
          <mxGeometry x="60" y="220" width="30" height="60" as="geometry" />
        </mxCell>
        <mxCell id="NGM2FFOQqWBgE3LcFrRt-32" value="Flow of Communication" style="text;html=1;align=center;verticalAlign=middle;resizable=0;points=[];autosize=1;" vertex="1" parent="WIyWlLk6GJQsqaUBKTNV-1">
          <mxGeometry x="344" y="490" width="140" height="20" as="geometry" />
        </mxCell>
        <mxCell id="NGM2FFOQqWBgE3LcFrRt-33" value="Schreibt Code" style="rounded=1;whiteSpace=wrap;html=1;fontSize=12;glass=0;strokeWidth=1;shadow=0;" vertex="1" parent="WIyWlLk6GJQsqaUBKTNV-1">
          <mxGeometry x="344" y="620" width="120" height="40" as="geometry" />
        </mxCell>
        <mxCell id="NGM2FFOQqWBgE3LcFrRt-34" value="kompiliert Code" style="rounded=1;whiteSpace=wrap;html=1;fontSize=12;glass=0;strokeWidth=1;shadow=0;" vertex="1" parent="WIyWlLk6GJQsqaUBKTNV-1">
          <mxGeometry x="344" y="720" width="120" height="40" as="geometry" />
        </mxCell>
        <mxCell id="NGM2FFOQqWBgE3LcFrRt-36" value="Deployed Binaries" style="rounded=1;whiteSpace=wrap;html=1;fontSize=12;glass=0;strokeWidth=1;shadow=0;" vertex="1" parent="WIyWlLk6GJQsqaUBKTNV-1">
          <mxGeometry x="344" y="820" width="120" height="40" as="geometry" />
        </mxCell>
      </root>
    </mxGraphModel>
  </diagram>
</mxfile>
